<svg width="48" height="48" viewBox="0 0 48 48" fill="none" xmlns="http://www.w3.org/2000/svg">
<path d="M4 12L17.826 19.8339C22.9232 22.722 25.0768 22.722 30.174 19.8339L44 12" stroke="white" stroke-width="1.5" stroke-linejoin="round"/>
<path d="M4.03154 26.9512C4.16228 33.0824 4.22766 36.1478 6.48992 38.4188C8.75216 40.6896 11.9007 40.7686 18.1977 40.9268C22.0786 41.0244 25.9214 41.0244 29.8024 40.9268C36.0994 40.7686 39.2478 40.6896 41.5102 38.4188C43.7724 36.1478 43.8378 33.0824 43.9684 26.9512C44.0106 24.9798 44.0106 23.0202 43.9684 21.0488C43.8378 14.9177 43.7724 11.8522 41.5102 9.58132C39.2478 7.31046 36.0994 7.23136 29.8024 7.07314C25.9214 6.97562 22.0786 6.97562 18.1976 7.07312C11.9007 7.23132 8.75216 7.31042 6.4899 9.5813C4.22764 11.8522 4.16228 14.9177 4.03152 21.0488C3.98948 23.0202 3.9895 24.9798 4.03154 26.9512Z" stroke="white" stroke-width="1.5" stroke-linejoin="round"/>
</svg>
