<svg width="46" height="46" viewBox="0 0 46 46" fill="none" xmlns="http://www.w3.org/2000/svg">
<path d="M9.08573 27.5396L12.8292 24.8814C13.8852 24.1316 14.9558 23.6291 16.1773 23.3038C17.5797 22.9302 18.2083 22.1651 18.2083 20.5294C18.2083 16.3804 27.7917 15.9389 27.7917 20.5294C27.7917 22.1651 28.4203 22.9302 29.8228 23.3038C31.0538 23.6316 32.1231 24.1374 33.1708 24.8814L36.9142 27.5396C38.6082 28.7425 39.3965 29.3241 39.8364 30.2487C40.25 31.1186 40.25 32.1387 40.25 34.1788C40.25 37.8467 40.25 39.6808 39.223 40.8564C37.9791 42.2803 34.7453 42.1581 32.7591 42.1581H13.241C11.2546 42.1581 8.08659 42.3557 6.77695 40.8564C5.75 39.6808 5.75 37.8467 5.75 34.1788C5.75 32.1387 5.75 31.1186 6.16369 30.2487C6.60342 29.3241 7.39185 28.7425 9.08573 27.5396Z" stroke="white" stroke-width="1.5"/>
<path d="M26.8333 32.5833C26.8333 34.7005 25.1171 36.4167 23 36.4167C20.8828 36.4167 19.1667 34.7005 19.1667 32.5833C19.1667 30.4662 20.8828 28.75 23 28.75C25.1171 28.75 26.8333 30.4662 26.8333 32.5833Z" stroke="white" stroke-width="1.5"/>
<path d="M13.3403 7.08729C10.8133 7.80878 8.99652 8.70381 7.33403 9.78372C4.70193 11.4935 3.57349 14.5744 3.8833 17.5473C4.01425 18.8038 5.02289 19.4045 6.19254 19.0795C7.08114 18.8326 7.97118 18.5922 8.85425 18.3303C11.4369 17.5643 12.0443 16.6331 12.4032 13.9895L13.3403 7.08729ZM13.3403 7.08729C19.5856 5.30424 26.4143 5.30424 32.6598 7.08729M32.6598 7.08729C35.1867 7.80878 37.0036 8.70381 38.6659 9.78372C41.298 11.4935 42.4266 14.5744 42.1166 17.5473C41.9857 18.8038 40.9772 19.4045 39.8074 19.0795C38.9189 18.8326 38.0288 18.5922 37.1458 18.3303C34.5631 17.5643 33.9557 16.6331 33.5969 13.9895L32.6598 7.08729Z" stroke="white" stroke-width="1.5" stroke-linejoin="round"/>
</svg>
